<?xml version="1.0" encoding="iso-8859-1"?>
<!-- Generator: Adobe Illustrator 21.0.0, SVG Export Plug-In . SVG Version: 6.00 Build 0)  -->
<svg version="1.1" id="Capa_1" xmlns="http://www.w3.org/2000/svg" xmlns:xlink="http://www.w3.org/1999/xlink" x="0px" y="0px"
	 viewBox="0 0 512 512" style="enable-background:new 0 0 512 512;" xml:space="preserve">
<polygon style="fill:#CB671B;" points="460.078,44.614 364.396,44.614 235.984,64.63 256,512 460.078,512 "/>
<polygon style="fill:#FF9100;" points="51.922,44.614 51.922,512 256,512 256,64.63 147.597,44.614 "/>
<polygon style="fill:#EFE2DD;" points="426.292,78.399 256,78.399 235.984,250.971 256,478.266 426.292,478.266 "/>
<rect x="85.71" y="78.4" style="fill:#FFF5F5;" width="170.29" height="399.87"/>
<path style="fill:#B4D2D7;" d="M364.396,44.614h-63.782C300.614,19.974,280.64,0,256,0l-20.016,70.333L256,108.399h108.396V44.614z"
	/>
<path style="fill:#E1EBF0;" d="M211.386,44.614h-63.789v63.785H256V0C231.36,0,211.386,19.974,211.386,44.614z"/>
<g>
	<polygon style="fill:#9B9696;" points="364.396,187.185 364.396,157.185 256,157.185 245.992,172.185 256,187.185 	"/>
	<polygon style="fill:#9B9696;" points="364.396,250.971 364.396,220.971 256,220.971 245.992,235.971 256,250.971 	"/>
	<polygon style="fill:#9B9696;" points="364.396,314.757 364.396,284.757 256,284.757 245.992,299.757 256,314.757 	"/>
</g>
<g>
	<rect x="147.6" y="157.19" style="fill:#E1D3CE;" width="108.4" height="30"/>
	<rect x="147.6" y="284.76" style="fill:#E1D3CE;" width="108.4" height="30"/>
	<rect x="147.6" y="220.97" style="fill:#E1D3CE;" width="108.4" height="30"/>
</g>
<g>
</g>
<g>
</g>
<g>
</g>
<g>
</g>
<g>
</g>
<g>
</g>
<g>
</g>
<g>
</g>
<g>
</g>
<g>
</g>
<g>
</g>
<g>
</g>
<g>
</g>
<g>
</g>
<g>
</g>
</svg>
