<?xml version="1.0" encoding="iso-8859-1"?>
<!-- Generator: Adobe Illustrator 19.0.0, SVG Export Plug-In . SVG Version: 6.00 Build 0)  -->
<svg version="1.1" id="Capa_1" xmlns="http://www.w3.org/2000/svg" xmlns:xlink="http://www.w3.org/1999/xlink" x="0px" y="0px"
	 viewBox="0 0 435.767 435.767" style="enable-background:new 0 0 435.767 435.767;" xml:space="preserve">
<path style="fill:#683B1A;" d="M24,353.883c-13.254,0-24,10.746-24,24s10.746,24,24,24h120l-73.246-48H24z"/>
<path style="fill:#D1D8DC;" d="M309.926,354.481l10.074-80.598h-64v112c0,8.837,7.163,16,16,16h32h27.526
	c12.273,0,20.2-13.384,14.006-23.979C338.158,365.286,325.133,356.374,309.926,354.481z"/>
<path style="fill:#AA7135;" d="M419.742,81.883h-15.859c-12.73,0-24.94-5.058-33.942-14.059l-19.882-19.882
	c-9.002-9.002-21.21-14.058-33.941-14.058h-56.236c-12.73,0-24.939,5.057-33.941,14.058l-1.942,1.942v131.195
	c0,0-93.758,54.031-122.351,73.178c-1.801,1.131-3.5,2.354-5.199,3.619c-22.994,17.126-36.725,46.033-31.246,78.013
	c5.637,32.899,32.572,59.63,65.528,64.926c39.314,6.317,74.4-16.047,87.65-49.451c3.179-8.015,10.634-13.488,19.258-13.488H272
	c5.241,0,10.602-0.522,16.069-1.624c31.714-6.393,57.248-32.482,62.72-64.367c5.454-31.775-8.074-60.472-30.789-77.638v-32.363
	h47.999c17.601,0,39.41-12.349,48.466-27.442l16.997-28.329C439.859,95.45,432.178,81.883,419.742,81.883z"/>
<g>
	<circle style="fill:#010101;" cx="336.003" cy="81.847" r="12"/>
	<path style="fill:#010101;" d="M225.65,48.234l-37.453,37.453c-7.81,7.81-12.197,18.402-12.197,29.446v12.973
		c0,23.212,15.696,44.491,38.492,48.865C245.17,182.856,272,159.502,272,129.883v-96h-11.705
		C247.301,33.883,234.838,39.045,225.65,48.234z"/>
</g>
<path style="fill:#D1D8DC;" d="M223.762,401.883h-75.674c0-26.51,21.49-48,48-48c18.092,0,33.846,10.01,42.026,24.792
	C243.878,389.091,235.666,401.883,223.762,401.883z"/>
<path style="fill:#9B6534;" d="M176,241.883c-5.481,0-10.828,0.562-16,1.614c11.809,2.398,22.5,7.61,31.797,14.582
	c-0.078-0.066-0.152-0.134-0.234-0.195h0.442c0,0.129,0.031,0.246,0.035,0.371C211.352,272.857,224,295.804,224,321.884
	c0,12.45-3.094,24.092-8.164,34.598c0.828-1.718,1.836-3.334,2.547-5.117c3.18-8.016,10.633-13.488,19.258-13.488h16.75
	c1.047-5.168,1.61-10.514,1.61-15.992C256,277.699,220.184,241.883,176,241.883z"/>
<path style="fill:#D1D8DC;" d="M419.742,81.883h-15.859c-12.73,0-24.942-5.058-33.942-14.058l-19.883-19.883
	c-0.019-0.022-0.05-0.035-0.07-0.058C361.082,61.618,368,78.856,368,97.883c0,26.293-12.855,49.418-32.438,64H368
	c17.602,0,39.41-12.348,48.465-27.442l16.996-28.328C439.86,95.45,432.18,81.883,419.742,81.883z"/>
<path style="fill:#AA7135;" d="M192.004,257.883c0,0.137,0.039,0.262,0.039,0.398c-0.058-0.047-0.114-0.1-0.176-0.145
	c-0.102-0.086-0.199-0.176-0.305-0.254H192.004z"/>
<path style="fill:#010101;" d="M419.742,81.883h-15.859c-0.562,0-1.098-0.145-1.656-0.164c-1.386,2.926-2.226,6.16-2.226,9.614
	c0,12.453,10.094,22.55,22.55,22.55c2.45,0,4.766-0.49,6.977-1.215l3.934-6.554C439.86,95.45,432.18,81.883,419.742,81.883z"/>
<g>
</g>
<g>
</g>
<g>
</g>
<g>
</g>
<g>
</g>
<g>
</g>
<g>
</g>
<g>
</g>
<g>
</g>
<g>
</g>
<g>
</g>
<g>
</g>
<g>
</g>
<g>
</g>
<g>
</g>
</svg>
