<?xml version="1.0" encoding="iso-8859-1"?>
<!-- Generator: Adobe Illustrator 21.0.0, SVG Export Plug-In . SVG Version: 6.00 Build 0)  -->
<svg version="1.1" id="Capa_1" xmlns="http://www.w3.org/2000/svg" xmlns:xlink="http://www.w3.org/1999/xlink" x="0px" y="0px"
	 viewBox="0 0 512 512" style="enable-background:new 0 0 512 512;" xml:space="preserve">
<polygon style="fill:#E30000;" points="512,107.791 448.215,107.791 428.199,295.393 448.215,482.994 512,482.994 "/>
<path style="fill:#9B9696;" d="M367.588,134.476v-26.685c0-43.442-35.343-78.785-78.785-78.785H256l-10.008,15.566L256,59.006
	h32.803c26.9,0,48.785,21.885,48.785,48.785v26.685H367.588z"/>
<path style="fill:#E1D3CE;" d="M223.197,29.006c-43.442,0-78.785,35.343-78.785,78.785v26.685h30v-26.685
	c0-26.9,21.885-48.785,48.785-48.785H256v-30H223.197z"/>
<polygon style="fill:#EFE2DD;" points="448.215,107.791 256,107.791 235.984,295.393 256,482.994 448.215,482.994 "/>
<polygon style="fill:#FFF5F5;" points="63.785,107.791 43.769,295.393 63.785,482.994 256,482.994 256,107.791 "/>
<rect y="107.79" style="fill:#FF4A4A;" width="63.785" height="375.2"/>
<polygon style="fill:#E30000;" points="287.893,391.98 287.893,326.427 352.588,326.427 352.588,262.641 287.893,262.641 
	287.893,198.805 256,198.805 235.984,295.393 256,391.98 "/>
<polygon style="fill:#FF4A4A;" points="224.107,262.641 159.412,262.641 159.412,326.427 224.107,326.427 224.107,391.98 
	256,391.98 256,198.805 224.107,198.805 "/>
<g>
</g>
<g>
</g>
<g>
</g>
<g>
</g>
<g>
</g>
<g>
</g>
<g>
</g>
<g>
</g>
<g>
</g>
<g>
</g>
<g>
</g>
<g>
</g>
<g>
</g>
<g>
</g>
<g>
</g>
</svg>
