<?xml version="1.0" encoding="iso-8859-1"?>
<!-- Generator: Adobe Illustrator 18.1.1, SVG Export Plug-In . SVG Version: 6.00 Build 0)  -->
<svg xmlns="http://www.w3.org/2000/svg" xmlns:xlink="http://www.w3.org/1999/xlink" version="1.1" id="Capa_1" x="0px" y="0px" viewBox="0 0 135.996 135.996" style="enable-background:new 0 0 135.996 135.996;" xml:space="preserve" width="512px" height="512px">
<g>
	<path d="M135.975,44.163c-2.011-22.522-18.549-34.153-33.058-35.423   c-17.848-1.564-27.242,3.919-34.919,11.266c-7.677-7.351-17.103-12.837-34.919-11.27C18.563,10.007,2.026,21.638,0.021,44.163   L0,51.085l0.021,0.465c2.04,23.56,23.338,47.821,65.11,74.175l2.867,1.804l2.867-1.807c41.772-26.355,63.07-50.619,65.11-74.175   l0.021-6.907L135.975,44.163z M75.671,38.609c4.141,0,6.71,12.905,6.71,16.609c0,3.697-3.006,6.714-6.71,6.714   s-6.71-3.017-6.71-6.714C68.961,51.514,71.534,38.609,75.671,38.609z M58.972,38.609c4.033,0.104,6.707,12.905,6.707,16.609   c0,3.697-3.006,6.714-6.707,6.714c-3.708,0-6.714-3.017-6.714-6.714C52.258,51.514,54.943,38.501,58.972,38.609z M38.405,68.918   c0-3.704,3.98-16.516,6.71-16.609c2.731-0.093,6.71,12.902,6.71,16.609c0,3.697-3.006,6.71-6.71,6.71   C41.411,75.628,38.405,72.615,38.405,68.918z M90.223,91.995c-5.576,9.81-9.971,1.163-22.268,1.163   c-12.301,0-16.395,8.747-22.275-1.163c-3.063-5.189,7.086-9.241,10.357-12.29c4.08-3.811,5.086-10.74,11.918-10.74   c6.51,0,7.906,6.814,11.978,10.364C83.552,82.482,93.519,86.193,90.223,91.995z M90.888,75.628c-3.711,0-6.718-3.013-6.718-6.71   c0-3.704,3.357-16.516,6.718-16.609c3.35-0.089,6.703,12.902,6.703,16.609C97.592,72.615,94.585,75.628,90.888,75.628z" fill="#1e90ff"/>
</g>
<g>
</g>
<g>
</g>
<g>
</g>
<g>
</g>
<g>
</g>
<g>
</g>
<g>
</g>
<g>
</g>
<g>
</g>
<g>
</g>
<g>
</g>
<g>
</g>
<g>
</g>
<g>
</g>
<g>
</g>
</svg>
