<?xml version="1.0" encoding="iso-8859-1"?>
<!-- Generator: Adobe Illustrator 19.0.0, SVG Export Plug-In . SVG Version: 6.00 Build 0)  -->
<svg version="1.1" id="Capa_1" xmlns="http://www.w3.org/2000/svg" xmlns:xlink="http://www.w3.org/1999/xlink" x="0px" y="0px"
	 viewBox="0 0 512 512" style="enable-background:new 0 0 512 512;" xml:space="preserve">
<path style="fill:#73BCFF;" d="M389.353,161.262c-2.101-23.11-21.309-40.816-44.717-40.816H69.128
	c-23.408,0-42.615,17.706-44.717,40.816L0.201,431.367c-1.199,12.604,3.002,25.211,11.705,34.514
	c8.404,9.304,20.408,14.706,33.313,14.706h236.693c5.702,0,11.104-3.301,13.505-8.404l101.139-207.98
	c1.199-2.402,1.801-5.101,1.501-7.803L389.353,161.262z"/>
<path style="fill:#3AAAFF;" d="M398.056,256.399c0.3,2.702-0.3,5.402-1.501,7.803l-101.139,207.98
	c-2.402,5.103-7.803,8.404-13.505,8.404h-75.029V120.448h137.754c23.408,0,42.615,17.706,44.717,40.816L398.056,256.399z"/>
<path style="fill:#FDBF00;" d="M405.959,240.494c-11.705,0-21.907,4.501-30.012,11.705c-8.104-7.205-18.307-11.705-30.012-11.705
	c-24.911,0-45.017,20.107-45.017,45.017c0,24.909,20.107,45.017,45.017,45.017h60.023c24.911,0,45.017-20.109,45.017-45.017
	C450.976,260.601,430.869,240.494,405.959,240.494z"/>
<path style="fill:#FF9F00;" d="M405.959,330.529h-30.012v-78.33c8.104-7.205,18.307-11.705,30.012-11.705
	c24.911,0,45.017,20.107,45.017,45.017C450.976,310.42,430.869,330.529,405.959,330.529z"/>
<path style="fill:#FF4949;" d="M465.982,360.54h-180.07c-8.404,0-15.006,6.602-15.006,15.006v121.047
	c0,8.402,6.602,15.006,15.006,15.006h180.07c8.404,0,15.006-6.604,15.006-15.006V375.546
	C480.988,367.142,474.386,360.54,465.982,360.54z"/>
<path style="fill:#FF8597;" d="M465.982,300.517h-180.07c-24.911,0-45.017,20.107-45.017,45.017v30.012
	c0,8.402,6.602,15.006,15.006,15.006h241.093c8.404,0,15.006-6.604,15.006-15.006v-30.012
	C512,320.624,490.892,300.517,465.982,300.517z"/>
<path style="fill:#FF193D;" d="M480.988,375.546v121.047c0,8.402-6.602,15.006-15.006,15.006h-90.035V360.54h90.035
	C474.386,360.54,480.988,367.142,480.988,375.546z"/>
<path style="fill:#FF6C6C;" d="M512,345.535v30.012c0,8.402-6.602,15.006-15.006,15.006H375.947v-90.035h90.035
	C490.892,300.517,512,320.624,512,345.535z"/>
<path style="fill:#FFE470;" d="M390.953,300.517v105.041c0,8.402-6.602,15.006-15.006,15.006c-8.404,0-15.006-6.604-15.006-15.006
	V300.517H390.953z"/>
<path style="fill:#4A696F;" d="M296.917,90.436v105.041c0,0.599-0.3,1.199-0.3,1.801h-29.41c0-0.601-0.3-1.201-0.3-1.801V90.436
	c0-33.014-27.011-60.023-60.023-60.023S146.86,57.422,146.86,90.436v105.041c0,0.599-0.3,1.199-0.3,1.801h-29.41
	c0-0.601-0.3-1.201-0.3-1.801V90.436c0-49.52,40.515-90.035,90.035-90.035S296.917,40.916,296.917,90.436z"/>
<path style="fill:#FFD400;" d="M390.953,300.517v105.041c0,8.402-6.602,15.006-15.006,15.006V300.517H390.953z"/>
<path style="fill:#3E5959;" d="M296.917,90.436v105.041c0,0.599-0.3,1.199-0.3,1.801h-29.41c0-0.601-0.3-1.201-0.3-1.801V90.436
	c0-33.014-27.011-60.023-60.023-60.023V0.401C256.401,0.401,296.917,40.916,296.917,90.436z"/>
<path style="fill:#384949;" d="M161.865,210.482h-60.023c-8.294,0-15.006-6.712-15.006-15.006c0-8.294,6.712-15.006,15.006-15.006
	h60.023c8.294,0,15.006,6.712,15.006,15.006C176.87,203.771,170.159,210.482,161.865,210.482z"/>
<path style="fill:#293939;" d="M311.923,210.482h-60.023c-8.294,0-15.006-6.712-15.006-15.006c0-8.294,6.712-15.006,15.006-15.006
	h60.023c8.294,0,15.006,6.712,15.006,15.006C326.928,203.771,320.217,210.482,311.923,210.482z"/>
<g>
</g>
<g>
</g>
<g>
</g>
<g>
</g>
<g>
</g>
<g>
</g>
<g>
</g>
<g>
</g>
<g>
</g>
<g>
</g>
<g>
</g>
<g>
</g>
<g>
</g>
<g>
</g>
<g>
</g>
</svg>
